<?xml version="1.0" standalone="no"?>
<!DOCTYPE svg PUBLIC "-//W3C//DTD SVG 20010904//EN"
 "http://www.w3.org/TR/2001/REC-SVG-20010904/DTD/svg10.dtd">
<svg version="1.0" xmlns="http://www.w3.org/2000/svg"
 width="1200.000000pt" height="1200.000000pt" viewBox="0 0 1200.000000 1200.000000"
 preserveAspectRatio="xMidYMid meet">

<g transform="translate(0.000000,1200.000000) scale(0.100000,-0.100000)"
fill="#000000" stroke="none">
<path d="M6346 8439 c-32 -25 -97 -120 -189 -276 -214 -362 -359 -777 -427
-1220 -56 -368 -50 -820 15 -1160 8 -43 15 -79 15 -80 0 -2 -900 -3 -2000 -3
-1100 0 -2000 -2 -2000 -5 0 -3 86 -130 191 -281 105 -152 188 -282 186 -289
-3 -6 -89 -133 -191 -281 l-186 -269 885 -3 885 -2 0 -104 c0 -114 1 -115 71
-116 53 0 158 -41 235 -92 112 -72 168 -91 296 -96 133 -5 211 15 319 86 135
87 205 107 347 99 117 -6 168 -23 268 -89 120 -77 190 -99 322 -99 108 0 194
25 281 81 145 94 216 115 360 108 116 -7 155 -19 277 -93 121 -74 193 -96 309
-96 116 0 188 22 309 96 123 74 162 87 275 93 146 7 223 -16 356 -107 84 -58
177 -85 290 -85 113 0 206 27 290 85 109 74 156 92 298 114 l37 6 0 104 0 105
885 2 885 3 -190 275 c-105 151 -190 278 -190 283 0 4 86 131 190 283 105 151
190 276 190 279 0 3 -716 5 -1591 5 l-1592 0 7 38 c62 352 79 627 56 937 -45
605 -233 1158 -563 1657 -39 58 -81 111 -94 117 -38 17 -88 13 -117 -10z m121
-361 c187 -307 336 -712 401 -1088 37 -213 46 -330 46 -590 0 -255 -17 -446
-57 -635 l-13 -60 -162 -3 -162 -2 0 770 0 770 -110 0 -110 0 0 -770 0 -770
-164 0 -163 0 -12 73 c-50 292 -66 501 -57 737 18 515 122 932 338 1365 65
129 157 285 168 285 4 0 30 -37 57 -82z m-4009 -2550 c5 -7 34 -131 63 -275
28 -145 55 -263 59 -263 4 0 12 39 19 88 29 200 73 448 80 455 4 4 35 7 67 5
l59 -3 2 -100 c1 -55 3 -235 5 -400 l3 -300 -45 0 -45 0 -1 60 c-1 33 -3 158
-4 278 -2 119 -5 215 -8 213 -2 -3 -21 -105 -42 -228 -22 -123 -43 -238 -49
-255 -5 -18 -8 -33 -5 -33 3 0 0 -9 -6 -21 -8 -14 -19 -19 -38 -17 -27 3 -27
5 -59 173 -18 94 -35 186 -37 205 -3 19 -14 69 -25 110 l-19 75 -4 -280 -3
-280 -24 -3 c-12 -2 -34 -1 -47 2 l-23 6 -1 400 0 400 59 0 c35 0 63 -5 69
-12z m566 -391 c-2 -281 -5 -402 -13 -410 -9 -9 -17 -8 -32 1 -12 8 -18 9 -14
3 4 -7 -4 -11 -20 -11 l-25 0 0 404 c1 302 4 406 13 410 7 3 30 4 52 3 l40 -2
-1 -398z m200 387 c3 -8 6 -168 7 -354 l1 -339 86 -3 87 -3 0 -45 0 -45 -134
-3 c-92 -2 -137 1 -141 9 -9 14 -13 776 -5 789 10 17 92 12 99 -6z m513 -10
c15 -12 37 -36 48 -55 19 -32 20 -52 20 -329 0 -271 -2 -297 -19 -326 -34 -56
-68 -68 -191 -69 l-110 0 -3 403 -2 404 114 -4 c98 -3 119 -6 143 -24z m403
10 c63 -25 84 -69 88 -184 5 -120 -8 -170 -59 -225 l-39 -43 55 -140 c71 -182
75 -199 42 -207 -13 -4 -38 -5 -53 -3 -28 3 -31 10 -89 172 -33 92 -64 166
-70 165 -6 -3 -10 -71 -10 -169 l0 -165 -50 0 -50 0 -3 395 c-1 217 0 401 3
407 7 20 184 17 235 -3z m448 -36 l3 -48 -80 0 c-58 0 -81 -4 -82 -12 -5 -46
-5 -229 0 -235 3 -4 33 -8 66 -8 l60 0 0 -45 0 -45 -62 -3 -62 -3 -3 -92 c-2
-51 -2 -109 0 -129 l3 -37 82 -3 82 -3 0 -45 0 -45 -125 -6 c-69 -3 -131 -4
-137 -1 -10 3 -13 77 -14 321 -1 174 -3 352 -5 395 -2 44 -1 83 2 88 3 5 65 7
137 6 l132 -3 3 -47z m338 26 c15 -11 37 -33 48 -48 20 -26 21 -43 24 -316 4
-271 3 -291 -16 -333 -30 -67 -62 -81 -197 -81 l-110 -1 -3 390 c-1 214 0 396
3 403 4 11 30 13 114 10 92 -2 114 -6 137 -24z m249 -114 l0 -135 -35 0 c-34
0 -35 2 -42 45 -9 61 -10 215 -1 224 4 4 23 6 43 4 l35 -3 0 -135z m335 122
c52 -26 80 -74 80 -139 l0 -54 -47 3 c-47 3 -48 4 -51 38 -5 47 -27 70 -69 70
-30 0 -36 -5 -49 -37 -14 -32 -14 -40 0 -77 9 -23 46 -86 82 -141 73 -109 132
-226 135 -265 4 -65 -2 -101 -21 -120 -11 -11 -20 -24 -20 -28 0 -5 -9 -17
-21 -28 -30 -27 -141 -27 -188 1 -45 26 -73 82 -75 148 l-1 52 50 0 50 0 7
-50 c8 -54 27 -75 68 -75 37 0 50 18 50 66 0 49 -29 109 -119 243 -71 106 -99
165 -105 224 -5 47 13 108 41 139 42 48 139 62 203 30z m599 0 c19 -9 44 -29
55 -44 18 -26 36 -112 28 -136 -2 -7 -25 -12 -53 -12 l-49 0 0 37 c0 44 -24
73 -59 73 -36 0 -50 -11 -60 -46 -12 -44 6 -89 88 -212 102 -155 126 -212 126
-295 0 -58 -4 -72 -21 -86 -11 -9 -19 -21 -17 -27 2 -6 -6 -19 -18 -30 -28
-25 -139 -26 -186 -1 -42 22 -73 84 -76 150 l-2 52 48 3 c51 3 51 3 62 -60 7
-46 28 -68 64 -68 38 0 51 17 51 67 0 52 -23 100 -114 237 -90 136 -122 241
-95 313 12 33 56 82 84 93 34 15 109 11 144 -8z m276 -3 c4 -11 6 -142 5 -292
-3 -365 -3 -373 16 -391 8 -9 29 -16 44 -16 56 0 58 11 59 374 0 185 4 333 9
338 5 5 27 8 48 6 l39 -3 3 -350 c2 -323 1 -353 -16 -385 -22 -42 -90 -80
-142 -80 -59 0 -122 38 -147 90 -23 43 -23 52 -23 380 0 185 3 340 7 343 3 4
26 7 49 7 34 0 44 -4 49 -21z m558 7 c69 -29 97 -89 97 -212 0 -98 -22 -165
-67 -204 l-36 -32 38 -96 c84 -218 91 -242 75 -252 -8 -5 -32 -10 -52 -10 -46
0 -46 1 -114 198 -67 195 -77 191 -73 -25 l4 -168 -44 -3 c-24 -2 -48 1 -53 6
-10 10 -13 786 -3 802 9 15 190 12 228 -4z m455 -38 l3 -48 -79 0 c-94 0 -92
4 -92 -138 0 -104 -3 -100 80 -104 l55 -3 0 -45 0 -45 -65 -5 -65 -5 0 -172
c0 -113 -4 -176 -11 -183 -6 -6 -29 -10 -50 -8 l-39 3 -2 185 c0 102 -3 280
-6 397 -2 117 -2 215 1 218 3 3 65 4 136 3 l131 -3 3 -47z m519 26 c48 -36 65
-68 67 -125 l1 -54 -50 0 -50 0 -3 40 c-2 22 -10 46 -19 53 -27 20 -70 15 -87
-10 -34 -48 -16 -97 92 -260 90 -138 115 -202 110 -287 -3 -42 -9 -67 -20 -75
-8 -6 -18 -21 -22 -33 -9 -30 -66 -47 -130 -39 -85 10 -133 59 -145 149 -4 31
-5 61 -1 67 4 7 28 10 56 8 l49 -3 3 -45 c2 -25 11 -53 19 -62 20 -22 66 -23
87 -2 37 37 11 112 -99 279 -85 130 -108 191 -103 272 4 72 25 108 79 136 44
23 129 19 166 -9z m261 -141 l2 -163 60 0 60 0 2 163 3 162 32 3 c18 2 41 -2
53 -8 20 -11 20 -16 18 -403 l-3 -392 -50 0 -50 0 -2 80 c0 44 -2 126 -2 183
l-1 102 -60 0 -60 0 -2 -182 -3 -183 -50 0 -50 0 -3 113 c-2 102 -1 112 15
112 17 1 17 1 1 14 -16 12 -18 33 -18 192 0 98 3 223 7 277 l6 98 46 -3 46 -3
3 -162z m569 155 c6 -7 18 -69 27 -138 9 -69 29 -226 46 -350 16 -124 31 -243
32 -265 l3 -40 -41 -3 c-50 -4 -60 8 -67 73 -3 28 -9 69 -12 93 l-8 42 -57 0
c-66 0 -65 2 -75 -96 -12 -107 -17 -116 -67 -112 l-43 3 3 55 c2 30 7 80 13
110 5 30 16 102 24 160 8 58 17 119 19 135 3 17 15 97 27 180 11 82 23 153 25
157 9 13 141 9 151 -4z m441 -15 c44 -32 73 -91 70 -143 l-3 -45 -50 0 -50 0
-3 40 c-4 49 -26 75 -63 75 -54 0 -58 -20 -59 -285 0 -132 -1 -254 0 -272 0
-39 23 -63 59 -63 38 0 59 27 63 80 l3 45 50 0 50 0 3 -40 c3 -58 -24 -121
-66 -153 -30 -23 -45 -27 -101 -27 -53 0 -72 5 -99 23 -66 47 -67 54 -67 382
0 338 1 344 85 388 55 29 136 26 178 -5z m262 -158 c3 -99 8 -173 13 -165 9
20 74 211 92 273 19 68 30 77 86 77 53 0 57 -5 35 -53 -8 -18 -38 -101 -67
-185 l-52 -153 31 -92 c17 -51 41 -117 53 -147 76 -191 75 -180 9 -180 -37 0
-52 4 -58 18 -5 9 -36 94 -67 187 -32 94 -62 175 -68 180 -6 6 -8 -59 -5 -177
3 -103 1 -193 -3 -200 -8 -13 -78 -13 -92 1 -9 9 -22 764 -13 786 4 12 17 15
53 13 l48 -3 5 -180z m-4795 -796 c-109 -16 -217 -60 -308 -126 -118 -86 -249
-84 -392 6 -114 72 -238 116 -355 124 -25 2 216 4 535 4 358 0 557 -3 520 -8z
m1295 4 c-133 -13 -246 -51 -355 -121 -148 -95 -254 -97 -400 -7 -122 76 -237
117 -360 128 -22 2 228 4 555 4 327 0 579 -2 560 -4z m1235 0 c-123 -11 -238
-52 -360 -128 -78 -48 -128 -65 -195 -65 -67 0 -117 17 -195 65 -119 74 -242
118 -360 128 -22 2 228 4 555 4 327 0 577 -2 555 -4z m1142 -9 c-93 -17 -192
-60 -263 -115 -85 -65 -187 -85 -285 -56 -24 8 -75 34 -114 59 -109 70 -223
109 -355 121 -19 2 219 4 530 4 512 1 558 0 487 -13z"/>
<path d="M3584 5163 c2 -153 4 -290 5 -305 1 -26 4 -28 39 -28 26 0 45 7 57
20 17 19 18 41 16 278 -1 141 -4 266 -8 277 -8 28 -22 35 -70 35 l-43 0 4
-277z"/>
<path d="M4000 5321 c0 -66 3 -126 6 -135 8 -22 66 -21 95 2 20 17 22 27 22
110 0 118 -14 142 -78 142 l-45 0 0 -119z"/>
<path d="M4780 5433 c-1 -15 -1 -528 0 -565 0 -37 1 -38 38 -38 21 0 47 6 58
14 18 14 19 27 16 286 -1 161 -6 280 -12 291 -8 14 -22 19 -55 19 -25 0 -45
-3 -45 -7z"/>
<path d="M6810 5304 l0 -137 46 6 c70 7 77 19 75 129 -2 118 -13 138 -76 138
l-45 0 0 -136z"/>
<path d="M8660 5323 c-7 -37 -14 -79 -15 -93 -1 -14 -6 -62 -10 -107 l-8 -83
48 0 47 0 -6 33 c-3 17 -12 95 -21 172 -9 76 -17 141 -19 143 -2 2 -9 -28 -16
-65z"/>
<path d="M4503 8246 c-360 -69 -638 -327 -735 -683 -31 -116 -32 -335 0 -452
52 -190 130 -320 272 -454 137 -129 278 -199 466 -232 276 -48 551 27 762 208
294 253 397 647 266 1021 -98 283 -356 511 -654 581 -99 23 -285 28 -377 11z
m373 -228 c205 -61 372 -216 454 -420 39 -100 54 -193 47 -307 -16 -294 -211
-545 -495 -639 -66 -21 -96 -25 -212 -26 -144 -1 -202 11 -327 71 -152 71
-291 228 -348 390 -113 326 -3 656 286 851 158 107 396 139 595 80z"/>
<path d="M8123 8245 c-92 -17 -151 -39 -237 -89 -72 -43 -187 -156 -232 -228
-15 -24 -28 -45 -30 -47 -2 -2 -27 18 -56 44 -83 74 -202 125 -295 125 l-43 0
0 -104 0 -103 48 -5 c127 -12 238 -123 250 -250 l5 -48 108 0 109 0 0 44 c0
94 59 226 138 309 79 83 194 139 310 153 l62 7 0 103 0 104 -32 -1 c-18 0 -65
-7 -105 -14z"/>
<path d="M4150 3845 l0 -105 38 0 c79 0 165 -33 284 -109 93 -59 167 -83 268
-89 116 -6 223 23 317 85 143 96 262 126 405 104 91 -14 144 -36 243 -100 102
-67 167 -86 295 -86 128 0 193 19 295 86 99 64 152 86 244 100 135 21 259 -9
381 -91 116 -79 182 -100 310 -100 128 0 194 22 311 101 88 59 195 99 272 99
l37 0 0 106 0 107 -72 -7 c-134 -12 -237 -48 -341 -118 -90 -61 -134 -78 -208
-78 -84 0 -117 11 -210 76 -137 93 -267 129 -434 121 -163 -8 -238 -33 -415
-138 -68 -40 -81 -44 -154 -48 -95 -4 -142 9 -216 59 -173 117 -365 156 -567
114 -99 -20 -162 -45 -250 -100 -102 -64 -133 -74 -216 -74 -90 0 -124 11
-202 63 -115 78 -261 127 -375 127 l-40 0 0 -105z"/>
</g>
</svg>
